<svg xmlns="http://www.w3.org/2000/svg" viewBox="0 0 1440 230">
  <!-- https://getwaves.io/ -->
  <path fill="#976dab" fill-opacity="1" d="M0,192L24,192C48,192,96,192,144,165.3C192,139,240,85,288,74.7C336,64,384,96,432,122.7C480,149,528,171,576,160C624,149,672,107,720,122.7C768,139,816,213,864,213.3C912,213,960,139,1008,96C1056,53,1104,43,1152,48C1200,53,1248,75,1296,69.3C1344,64,1392,32,1416,16L1440,0L1440,0L1416,0C1392,0,1344,0,1296,0C1248,0,1200,0,1152,0C1104,0,1056,0,1008,0C960,0,912,0,864,0C816,0,768,0,720,0C672,0,624,0,576,0C528,0,480,0,432,0C384,0,336,0,288,0C240,0,192,0,144,0C96,0,48,0,24,0L0,0Z"></path>
</svg>
